<svg xmlns="http://www.w3.org/2000/svg" width="668.849" height="408.273" viewBox="0 0 668.849 408.273">
  <g id="Group_118" data-name="Group 118" transform="translate(-633.5 -412.462)">
    <g id="Group_117" data-name="Group 117" transform="translate(583.401 364.995)">
      <g id="Background_Complete" data-name="Background Complete">
        <g id="Group_100" data-name="Group 100" opacity="0.391">
          <path id="Path_87" data-name="Path 87" d="M552.535,85.361H691.812S678,47.467,656.75,47.467s-27.91,26.156-27.91,26.156S614.5,59.412,602.722,59.412,580.7,78.191,580.7,78.191,564.058,68.093,552.535,85.361Z" fill="#4a5568"/>
          <path id="Path_88" data-name="Path 88" d="M284.294,124.7h65.088s-14.544-21.17-26-21.17-14.845,14.113-14.845,14.113-8.086-6.586-15.578-5.41S284.294,124.7,284.294,124.7Z" fill="#4a5568" opacity="0.5"/>
          <path id="Path_89" data-name="Path 89" d="M58.188,132.379H96.4s-8.54-12.429-15.267-12.429-8.716,8.286-8.716,8.286-4.748-3.867-9.147-3.177S58.188,132.379,58.188,132.379Z" fill="#4a5568" opacity="0.5"/>
          <path id="Path_90" data-name="Path 90" d="M460.487,137.183h74.437s-10.194-22.864-21.1-24.293-16.12,16.989-16.12,16.989-7.033-6.51-12.565-6.51-9.8,8.574-9.8,8.574S464.28,126.069,460.487,137.183Z" fill="#4a5568"/>
          <path id="Path_91" data-name="Path 91" d="M111.781,189.98H234.567s-16.815-37.714-34.8-40.072-26.591,28.024-26.591,28.024-11.6-10.738-20.725-10.738-16.163,14.143-16.163,14.143S118.038,171.646,111.781,189.98Z" fill="#4a5568"/>
          <path id="Path_92" data-name="Path 92" d="M98.735,104.907h50.283S140.381,88.342,131.011,88.1s-14.3,12.536-14.3,12.536S102.139,88.885,98.735,104.907Z" fill="#4a5568" opacity="0.5"/>
          <path id="Path_93" data-name="Path 93" d="M617.219,187.932H667.5s-8.637-16.565-18.008-16.807-14.3,12.537-14.3,12.537S620.622,171.91,617.219,187.932Z" fill="#4a5568" opacity="0.5"/>
        </g>
        <g id="Group_101" data-name="Group 101">
          <path id="Path_94" data-name="Path 94" d="M718.948,245.52S597,201.536,521.383,201.536c-90.813,0-179.043,19.6-212.521,26.073C220.94,244.61,50.6,245.52,50.6,245.52Z" transform="translate(0)" fill="#a6eae1"/>
          <path id="Path_95" data-name="Path 95" d="M50.6,245.52s67.216-25.589,143.147-25.589c53,0,129.068,5.3,200.716,13.984,27.276,3.306,169.282,11.605,169.282,11.605Z" fill="#a6eae1"/>
        </g>
      </g>
      <g id="Floor">
        <line id="Line_12" data-name="Line 12" y1="0.09" x2="667.5" transform="translate(50.599 245.505)" fill="none" stroke="#263238" stroke-linecap="round" stroke-linejoin="round" stroke-width="1"/>
      </g>
      <g id="Sea">
        <g id="Group_102" data-name="Group 102">
          <line id="Line_13" data-name="Line 13" x2="37.98" transform="translate(650.205 300.63)" fill="none" stroke="#9ce7dd" stroke-linecap="round" stroke-linejoin="round" stroke-width="1"/>
          <line id="Line_14" data-name="Line 14" x1="232.65" transform="translate(455.535 405.919)" fill="none" stroke="#9ce7dd" stroke-linecap="round" stroke-linejoin="round" stroke-width="1"/>
          <line id="Line_15" data-name="Line 15" x1="191.897" transform="translate(85.851 348.676)" fill="none" stroke="#9ce7dd" stroke-linecap="round" stroke-linejoin="round" stroke-width="1"/>
          <line id="Line_16" data-name="Line 16" x1="101.12" transform="translate(109.326 405.919)" fill="none" stroke="#9ce7dd" stroke-linecap="round" stroke-linejoin="round" stroke-width="1"/>
          <line id="Line_17" data-name="Line 17" x1="210.712" transform="translate(214.107 438.645)" fill="none" stroke="#9ce7dd" stroke-linecap="round" stroke-linejoin="round" stroke-width="1"/>
          <line id="Line_18" data-name="Line 18" x1="101.12" transform="translate(517.039 435.228)" fill="none" stroke="#9ce7dd" stroke-linecap="round" stroke-linejoin="round" stroke-width="1"/>
          <line id="Line_19" data-name="Line 19" x1="192.429" transform="translate(400.808 445.832)" fill="none" stroke="#9ce7dd" stroke-linecap="round" stroke-linejoin="round" stroke-width="1"/>
          <line id="Line_20" data-name="Line 20" x1="101.12" transform="translate(171.48 304.635)" fill="none" stroke="#9ce7dd" stroke-linecap="round" stroke-linejoin="round" stroke-width="1"/>
          <line id="Line_21" data-name="Line 21" x1="173.373" transform="translate(61.815 287.27)" fill="none" stroke="#9ce7dd" stroke-linecap="round" stroke-linejoin="round" stroke-width="1"/>
          <line id="Line_22" data-name="Line 22" x1="45.202" transform="translate(595.82 377.295)" fill="none" stroke="#9ce7dd" stroke-linecap="round" stroke-linejoin="round" stroke-width="1"/>
          <line id="Line_23" data-name="Line 23" x1="109.335" transform="translate(174.959 444.341)" fill="none" stroke="#9ce7dd" stroke-linecap="round" stroke-linejoin="round" stroke-width="1"/>
          <line id="Line_24" data-name="Line 24" x1="45.202" transform="translate(424.819 341.185)" fill="none" stroke="#9ce7dd" stroke-linecap="round" stroke-linejoin="round" stroke-width="1"/>
          <line id="Line_25" data-name="Line 25" x1="45.202" transform="translate(314.472 455.24)" fill="none" stroke="#9ce7dd" stroke-linecap="round" stroke-linejoin="round" stroke-width="1"/>
          <line id="Line_26" data-name="Line 26" x1="147.562" transform="translate(502.643 266.363)" fill="none" stroke="#9ce7dd" stroke-linecap="round" stroke-linejoin="round" stroke-width="1"/>
        </g>
      </g>
      <g id="Lighthouse">
        <g id="Group_113" data-name="Group 113">
          <g id="Group_103" data-name="Group 103" transform="translate(-11 3)">
            <path id="Path_96" data-name="Path 96" d="M356.039,92.83H381.8L722.389,389.4l-201.467,2.538Z" fill="#feebc8" opacity="0.677"/>
            <path id="Path_97" data-name="Path 97" d="M359.775,92.83h17.5l313.6,296.57-132.518,2.538Z" fill="#feebc8" opacity="0.802"/>
          </g>
          <g id="Group_112" data-name="Group 112">
            <g id="Group_104" data-name="Group 104">
              <path id="Path_98" data-name="Path 98" d="M429.538,405.92H308.3l3.4-48.6,3.4-48.6,3.4-48.6,3.4-48.6,3.4-48.61h87.24l3.4,48.61,3.4,48.6,3.4,48.6,3.4,48.6Z" fill="#4a5568"/>
              <path id="Path_99" data-name="Path 99" d="M415.938,211.52H321.9l3.4-48.61h87.24Z" fill="#4a5568" opacity="0.1"/>
              <path id="Path_100" data-name="Path 100" d="M429.538,405.92H308.3l3.4-48.6h114.44Z" fill="#4a5568" opacity="0.1"/>
              <path id="Path_101" data-name="Path 101" d="M422.738,308.72H315.1l3.4-48.6h100.84Z" fill="#4a5568" opacity="0.1"/>
              <path id="Path_103" data-name="Path 103" d="M368.918,182.922h0a5.868,5.868,0,0,0-5.868,5.868l-1.24,12.746h14.216l-1.239-12.746A5.869,5.869,0,0,0,368.918,182.922Z" fill="#fbb6ce"/>
              <path id="Path_104" data-name="Path 104" d="M392.632,228.48h0a5.868,5.868,0,0,0-5.868,5.868l-1.24,12.746H399.74l-1.24-12.746A5.868,5.868,0,0,0,392.632,228.48Z" fill="#fbb6ce"/>
              <path id="Path_105" data-name="Path 105" d="M333.485,276.676h0a5.869,5.869,0,0,0-5.868,5.869l-1.24,12.745h14.216l-1.239-12.745A5.869,5.869,0,0,0,333.485,276.676Z" fill="#fbb6ce"/>
              <path id="Path_106" data-name="Path 106" d="M368.918,325.057h0a5.869,5.869,0,0,0-5.868,5.869l-1.24,12.746h14.216l-1.239-12.746A5.869,5.869,0,0,0,368.918,325.057Z" fill="#fbb6ce"/>
            </g>
            <g id="Group_105" data-name="Group 105">
              <path id="Path_107" data-name="Path 107" d="M395.338,92.833H342.5a26.416,26.416,0,0,1,21.243-25.908A26.429,26.429,0,0,1,395.269,90.9C395.317,91.541,395.338,92.184,395.338,92.833Z" fill="#4a5568"/>
            </g>
            <g id="Group_106" data-name="Group 106">
              <rect id="Rectangle_45" data-name="Rectangle 45" width="33.807" height="3.715" transform="translate(346.215 91.277) rotate(90)" fill="#c7c7c7"/>
              <rect id="Rectangle_46" data-name="Rectangle 46" width="33.807" height="3.716" transform="translate(356.039 91.277) rotate(90)" fill="#c7c7c7"/>
              <rect id="Rectangle_47" data-name="Rectangle 47" width="33.807" height="3.715" transform="translate(365.864 91.277) rotate(90)" fill="#c7c7c7"/>
              <rect id="Rectangle_48" data-name="Rectangle 48" width="33.807" height="3.716" transform="translate(375.688 91.277) rotate(90)" fill="#c7c7c7"/>
              <rect id="Rectangle_49" data-name="Rectangle 49" width="33.807" height="3.715" transform="translate(385.513 91.277) rotate(90)" fill="#c7c7c7"/>
              <rect id="Rectangle_50" data-name="Rectangle 50" width="59.09" height="2.869" transform="translate(339.373 109.803)" fill="#c7c7c7"/>
              <rect id="Rectangle_51" data-name="Rectangle 51" width="33.807" height="3.716" transform="translate(395.337 91.277) rotate(90)" fill="#c7c7c7"/>
            </g>
            <g id="Group_107" data-name="Group 107">
              <rect id="Rectangle_52" data-name="Rectangle 52" width="63.562" height="30.56" transform="translate(337.137 125.084)" fill="#4a5568"/>
              <path id="Path_109" data-name="Path 109" d="M400.7,125.084v5.747l-63.562,10.316V125.084Z" fill="#4a5568" opacity="0.1"/>
            </g>
            <g id="Group_108" data-name="Group 108" opacity="0.05">
              <rect id="Rectangle_53" data-name="Rectangle 53" width="14.21" height="6.004" transform="translate(398.999 321.979)" fill="#fff"/>
              <rect id="Rectangle_54" data-name="Rectangle 54" width="14.209" height="6.004" transform="translate(391.073 329.55)" fill="#fff"/>
              <rect id="Rectangle_55" data-name="Rectangle 55" width="14.209" height="6.004" transform="translate(346.571 233.219)" fill="#fff"/>
              <rect id="Rectangle_56" data-name="Rectangle 56" width="14.21" height="6.004" transform="translate(338.645 240.791)" fill="#fff"/>
              <rect id="Rectangle_57" data-name="Rectangle 57" width="14.209" height="6.004" transform="translate(330.749 233.219)" fill="#fff"/>
              <rect id="Rectangle_58" data-name="Rectangle 58" width="10.874" height="4.595" transform="translate(364.623 77.332)" fill="#fff"/>
              <rect id="Rectangle_59" data-name="Rectangle 59" width="10.874" height="4.595" transform="translate(358.557 83.127)" fill="#fff"/>
              <rect id="Rectangle_60" data-name="Rectangle 60" width="10.874" height="4.595" transform="translate(352.515 77.332)" fill="#fff"/>
              <rect id="Rectangle_61" data-name="Rectangle 61" width="14.21" height="6.004" transform="translate(322.928 327.151)" fill="#fff"/>
              <rect id="Rectangle_62" data-name="Rectangle 62" width="14.209" height="6.004" transform="translate(382.411 182.922)" fill="#fff"/>
              <rect id="Rectangle_63" data-name="Rectangle 63" width="14.209" height="6.004" transform="translate(390.338 190.493)" fill="#fff"/>
              <rect id="Rectangle_66" data-name="Rectangle 66" width="14.209" height="6.004" transform="translate(367.895 273.997)" fill="#fff"/>
              <rect id="Rectangle_70" data-name="Rectangle 70" width="14.209" height="6.004" transform="translate(368.918 133.576)" fill="#fff" opacity="0.999"/>
              <rect id="Rectangle_71" data-name="Rectangle 71" width="14.21" height="6.004" transform="translate(376.845 141.147)" fill="#fff" opacity="0.999"/>
            </g>
            <g id="Group_109" data-name="Group 109">
              <rect id="Rectangle_67" data-name="Rectangle 67" width="106.414" height="20.722" transform="translate(315.711 152.554)" fill="#444a53"/>
            </g>
            <g id="Group_110" data-name="Group 110">
              <rect id="Rectangle_68" data-name="Rectangle 68" width="71.081" height="7.481" transform="translate(333.378 120.282)" fill="#444a53"/>
            </g>
            <g id="Group_111" data-name="Group 111">
              <rect id="Rectangle_69" data-name="Rectangle 69" width="59.09" height="6.219" transform="translate(339.373 91.277)" fill="#444a53"/>
            </g>
          </g>
        </g>
      </g>
      <g id="Rocks">
        <g id="Group_116" data-name="Group 116">
          <g id="Group_114" data-name="Group 114">
            <path id="Path_110" data-name="Path 110" d="M516.019,438.645H234.635s-1.051-27.422,8.893-37.307,19.539-12.351,22.764-14.5,14.025-11.485,21.282-19.221,17.737-19.34,23.112-20.415,30.106-5.386,35.213-3.667,32.712,21.747,35.676,22.607,56.237,22.383,61.075,23.209,32.468,7.337,44.613,13.288C503.925,410.8,516.019,438.645,516.019,438.645Z" fill="#7a8089"/>
            <path id="Path_111" data-name="Path 111" d="M433.142,386.11c-12.353.562-30.65,11.493-34.275,13.18-5.322,2.481-37.358-6.453-49.99-7.529S332.22,375,332.984,372.472s-13.808-7.047-11.989-13.095c1.067-3.538,33.943-10.6,33.943-10.6,10.074,6.514,24.537,16.75,26.634,17.36C383.875,366.811,416.376,379.887,433.142,386.11Z" fill="#7a8089"/>
            <path id="Path_112" data-name="Path 112" d="M299.832,386.87c.245-4.173,14.109-11.367,17.737-10.7s10.683,6.645,11.691,8.973,5.644,13.616,1.21,13.693-12.9-6.371-17.537-6.612S299.63,390.3,299.832,386.87Z" fill="#7a8089"/>
            <path id="Path_113" data-name="Path 113" d="M404.1,402.983c-.875-2.605,12-7.665,15.341-7.186s6.569,5.958,3.613,7.409-7.294-.591-9.559,0S404.767,404.962,404.1,402.983Z" fill="#7a8089"/>
          </g>
          <path id="Path_114" data-name="Path 114" d="M234.349,444.643H174.557c-6.438,0,7.353-15.918,12.985-18.246s20.371-1,24,1.555,18.972,10.709,20.854,12.063A4.462,4.462,0,0,1,234.349,444.643Z" fill="#7a8089"/>
          <g id="Group_115" data-name="Group 115">
            <path id="Path_115" data-name="Path 115" d="M450.129,445.984H571.79s-5.708-6.389-11.987-7.758-20.548-5.477-23.117-7.759-24.258-10.725-32.535-10.5-21.975,7.758-23.973,9.584-8.99,8.672-11.273,9.242S455.755,440.736,450.129,445.984Z" fill="#7a8089"/>
            <path id="Path_116" data-name="Path 116" d="M547.873,435.284a35.837,35.837,0,0,1-7.025.493c-.98-.085-10.519-3.831-14.028-4.206s-22.514-1.028-23.9-2.705c-1.044-1.256,6.213-5.217,10.983-7.281,9.464,2.519,20.958,7.256,22.787,8.882,1.323,1.172,5.739,2.828,10.572,4.345C547.467,434.976,547.673,435.136,547.873,435.284Z" fill="#7a8089"/>
            <path id="Path_117" data-name="Path 117" d="M516.019,434.838c-.01-.846,6.309-1.477,7.769-1.292s7.711,2.347,6.485,2.761a20.388,20.388,0,0,1-6.134.632C522.094,436.814,516.03,435.787,516.019,434.838Z" fill="#7a8089"/>
          </g>
        </g>
      </g>
    </g>
  </g>
</svg>
