<svg xmlns="http://www.w3.org/2000/svg" width="411.593" height="88.602" viewBox="0 0 411.593 88.602">
  <g id="icon-logo-type" transform="translate(-792.046 -77.301)">
    <path id="Path_32" data-name="Path 32" d="M34.762,51.592A14.81,14.81,0,0,1,33.655,57.3a14.162,14.162,0,0,1-3.088,4.662,15.045,15.045,0,0,1-4.633,3.147,14.1,14.1,0,0,1-5.74,1.165A13.25,13.25,0,0,1,12.532,63.8a12.7,12.7,0,0,1-2.884-2.884A10.95,10.95,0,0,1,7.9,57.186l1.34-.35a13.685,13.685,0,0,0,3.525,3.088,8.621,8.621,0,0,0,4.574,1.224,8.687,8.687,0,0,0,3.992-.932,10.259,10.259,0,0,0,3.147-2.447,11.114,11.114,0,0,0,2.039-3.525,11.974,11.974,0,0,0,.728-4.108,10.786,10.786,0,0,0-.7-4.166,8.643,8.643,0,0,0-1.836-2.8,13.283,13.283,0,0,0-2.535-1.981q-1.4-.845-2.826-1.719a22.247,22.247,0,0,1-2.739-1.981,9.576,9.576,0,0,1-2.243-2.855A27.424,27.424,0,0,1,13.2,41.861a38.633,38.633,0,0,1-3,7.342A43.917,43.917,0,0,1,5.86,55.846,29.751,29.751,0,0,1,.674,61.032l-.466-.816a18.9,18.9,0,0,0,3.263-4.953A38.766,38.766,0,0,0,5.772,49a49.269,49.269,0,0,0,1.34-6.614,46.781,46.781,0,0,0,.437-6.06,13.962,13.962,0,0,0-.291-2.855,13.408,13.408,0,0,1-.291-2.739,3.214,3.214,0,0,1,.961-2.506,3.539,3.539,0,0,1,2.477-.874,3.034,3.034,0,0,1,1.865.524,5.813,5.813,0,0,1,1.282,1.369,20.9,20.9,0,0,1,1.165,1.923A15.219,15.219,0,0,0,16.2,33.383,13.731,13.731,0,0,0,18.475,35.6,13.282,13.282,0,0,0,22,37.491a42.906,42.906,0,0,1,4.807,2.127,18.79,18.79,0,0,1,4.079,2.826,11.819,11.819,0,0,1,3.875,9.148ZM67.51,33.587a1.61,1.61,0,0,1-.466,1.136,1.47,1.47,0,0,1-1.107.5,2.305,2.305,0,0,1-1.107-.32q-.583-.32-1.311-.728a9.811,9.811,0,0,0-1.69-.728,6.9,6.9,0,0,0-2.185-.32,7.991,7.991,0,0,0-5.1,1.777,15.716,15.716,0,0,0-3.788,4.4,22.939,22.939,0,0,0-2.36,5.594,20.458,20.458,0,0,0-.816,5.361,18.369,18.369,0,0,0,.291,3.292,9.424,9.424,0,0,0,1.02,2.914,5.631,5.631,0,0,0,2.01,2.1,6.151,6.151,0,0,0,3.263.787,10.519,10.519,0,0,0,4.021-.787A15.95,15.95,0,0,0,61.8,56.487a17.332,17.332,0,0,1,.612-3.933,29.063,29.063,0,0,1,1.428-4.079,28.488,28.488,0,0,1,2.01-3.817,25.376,25.376,0,0,1,2.36-3.2l.758.466A23.911,23.911,0,0,0,68.035,46a30.048,30.048,0,0,0-.291,4.137,21.486,21.486,0,0,0,.35,3.962,9.048,9.048,0,0,0,1.224,3.234,6.114,6.114,0,0,0,2.389,2.156,8.457,8.457,0,0,0,3.9.787,10.978,10.978,0,0,0,5.361-1.34,16.609,16.609,0,0,0,4.312-3.38l.466.233a18.258,18.258,0,0,1-2.739,3.9,23.77,23.77,0,0,1-3.758,3.351,18.875,18.875,0,0,1-4.4,2.36,13.047,13.047,0,0,1-4.6.874A7.541,7.541,0,0,1,65,64.441a9.381,9.381,0,0,1-2.8-4.633,24.335,24.335,0,0,1-5.448,4.108,12.87,12.87,0,0,1-6.322,1.661,9.969,9.969,0,0,1-4.341-.9,9.4,9.4,0,0,1-3.176-2.418,10.476,10.476,0,0,1-1.952-3.584,14,14,0,0,1-.67-4.341,18.415,18.415,0,0,1,.845-5.39,28.225,28.225,0,0,1,2.331-5.448A30.784,30.784,0,0,1,47,38.423a27.479,27.479,0,0,1,4.458-4.2,21.734,21.734,0,0,1,5.1-2.855,14.912,14.912,0,0,1,5.477-1.049,10.479,10.479,0,0,1,1.573.146,8.3,8.3,0,0,1,1.806.5,4.159,4.159,0,0,1,1.486.991A2.267,2.267,0,0,1,67.51,33.587ZM96.471,17.1a5.639,5.639,0,0,1-.524,2.331A7.52,7.52,0,0,1,94.577,21.5a7.323,7.323,0,0,1-1.952,1.486,4.825,4.825,0,0,1-2.273.583,3.113,3.113,0,0,1-2.418-.991,3.577,3.577,0,0,1-.9-2.506,5.444,5.444,0,0,1,.524-2.3,7.256,7.256,0,0,1,3.292-3.438,4.85,4.85,0,0,1,2.243-.554,3.309,3.309,0,0,1,2.447.932A3.235,3.235,0,0,1,96.471,17.1Zm16.316,38.692a21.318,21.318,0,0,1-3.176,4.05,22.768,22.768,0,0,1-4.021,3.2,19.458,19.458,0,0,1-4.662,2.127,17.334,17.334,0,0,1-5.1.758,14.359,14.359,0,0,1-5.8-1.107,11.952,11.952,0,0,1-4.254-3.059,13.429,13.429,0,0,1-2.622-4.6,17.878,17.878,0,0,1-.9-5.8,20.5,20.5,0,0,1,.991-6.41,23.592,23.592,0,0,1,2.739-5.681A27.147,27.147,0,0,1,90.09,34.4a36.476,36.476,0,0,1,5.04-3.962l.7.524A29.47,29.47,0,0,0,91.2,38.54,22.188,22.188,0,0,0,89.42,47.28a20.473,20.473,0,0,0,.612,5.04A12.847,12.847,0,0,0,91.955,56.6a9.682,9.682,0,0,0,3.351,2.972,10.255,10.255,0,0,0,4.953,1.107,15.3,15.3,0,0,0,6.555-1.457,23.394,23.394,0,0,0,5.623-3.671Zm28.028,1.923A14.992,14.992,0,0,1,135.57,63.8a13.591,13.591,0,0,1-7.692,2.243,10.13,10.13,0,0,1-6.352-2.156,20.421,20.421,0,0,1-4.924-5.652,39.4,39.4,0,0,1-3.613-7.9,79.07,79.07,0,0,1-2.447-8.945c-.3-1.421-.563-2.819-.861-4.661-.178-1.087-.382-2.613-.537-4.108a72.835,72.835,0,0,1-.437-7.371q0-3.846.408-8.449a87.091,87.091,0,0,1,1.34-9.294,73.969,73.969,0,0,1,2.418-9.119,36.98,36.98,0,0,1,3.613-7.837,19.6,19.6,0,0,1,4.924-5.477,10.5,10.5,0,0,1,6.41-2.069,7.023,7.023,0,0,1,5.011,1.806,12.773,12.773,0,0,1,3.03,4.458A21.612,21.612,0,0,1,137.348-5.1a42.424,42.424,0,0,1,.379,5.3A52.046,52.046,0,0,1,136.24,12.58a58.243,58.243,0,0,1-4.079,11.479,51.659,51.659,0,0,1-6.089,9.789,40.109,40.109,0,0,1-7.517,7.371q.816,3.9,1.952,7.6a33.058,33.058,0,0,0,2.768,6.585,16.694,16.694,0,0,0,3.758,4.662,7.374,7.374,0,0,0,4.866,1.777,9.529,9.529,0,0,0,4.72-1.107,12.433,12.433,0,0,0,3.671-3.263ZM116.807,21.758q-.058,1.282-.029,3.147t.175,4.108q.146,2.243.437,4.807t.758,5.244a37.979,37.979,0,0,0,6.643-7.75,44.206,44.206,0,0,0,4.487-9.178,53.979,53.979,0,0,0,2.535-10.372A79.26,79.26,0,0,0,132.6.431q0-.758-.029-1.981a26.253,26.253,0,0,0-.2-2.622,28.14,28.14,0,0,0-.5-2.8A11.782,11.782,0,0,0,131-9.5a5.739,5.739,0,0,0-1.4-1.865,2.978,2.978,0,0,0-2.01-.728,4.8,4.8,0,0,0-3.875,2.185,20.4,20.4,0,0,0-2.855,5.565,51.906,51.906,0,0,0-1.981,7.459q-.787,4.079-1.253,7.837t-.641,6.73Q116.807,20.651,116.807,21.758ZM179.215-8.077a28.526,28.526,0,0,1-1.136,7.954,39.169,39.169,0,0,1-3.117,7.633,44.916,44.916,0,0,1-4.691,7.051,53.51,53.51,0,0,1-5.856,6.177,58.815,58.815,0,0,1-6.585,5.128,45.018,45.018,0,0,1-6.876,3.817l-.408-.874a31.449,31.449,0,0,0,8.245-5.8,45.688,45.688,0,0,0,6.934-8.449A45.858,45.858,0,0,0,170.5,4.685a31.169,31.169,0,0,0,1.777-10.139,14.822,14.822,0,0,0-.146-2.039,6.163,6.163,0,0,0-.583-1.923,3.894,3.894,0,0,0-1.195-1.428,3.279,3.279,0,0,0-1.981-.554,9.953,9.953,0,0,0-6.352,2.331,23.443,23.443,0,0,0-5.273,6.206,49.008,49.008,0,0,0-4.166,8.886,90.191,90.191,0,0,0-3.03,10.314,97.37,97.37,0,0,0-1.836,10.489,81.583,81.583,0,0,0-.612,9.5q0,2.273.262,5.04a40.1,40.1,0,0,0,.932,5.565,37.869,37.869,0,0,0,1.748,5.448,18.267,18.267,0,0,0,2.739,4.691,13.333,13.333,0,0,0,3.933,3.292,10.809,10.809,0,0,0,5.3,1.253,6.706,6.706,0,0,0,3.292-.758,6.207,6.207,0,0,0,2.214-2.039,9.383,9.383,0,0,0,1.253-2.914,13.644,13.644,0,0,0,.408-3.321,22.842,22.842,0,0,0-.728-5.536,18.43,18.43,0,0,0-2.214-5.3,13.313,13.313,0,0,0-3.758-3.962,9.183,9.183,0,0,0-5.361-1.573,11.15,11.15,0,0,0-1.777.146,11.3,11.3,0,0,0-1.777.437l-.35-.583a24.035,24.035,0,0,1,4.691-2.768,12.89,12.89,0,0,1,5.332-1.136,10.82,10.82,0,0,1,5.3,1.282,12.766,12.766,0,0,1,3.933,3.321,14.776,14.776,0,0,1,2.447,4.691,17.469,17.469,0,0,1,.845,5.332,20.428,20.428,0,0,1-1.369,7.517,18.707,18.707,0,0,1-3.817,6.089,17.294,17.294,0,0,1-5.856,4.05,18.859,18.859,0,0,1-7.488,1.457,14.24,14.24,0,0,1-6.148-1.253,15.3,15.3,0,0,1-4.633-3.351,19.237,19.237,0,0,1-3.321-4.866,32.625,32.625,0,0,1-2.156-5.827,42.3,42.3,0,0,1-1.165-6.148,52.4,52.4,0,0,1-.35-5.885,76.283,76.283,0,0,1,.9-11.188,91.449,91.449,0,0,1,2.68-12.149,78.181,78.181,0,0,1,4.487-11.771,49.093,49.093,0,0,1,6.293-10.052,30.034,30.034,0,0,1,8.07-6.992,19.275,19.275,0,0,1,9.906-2.622q3.788,0,5.594,2.185A8.811,8.811,0,0,1,179.215-8.077Zm35.429,55.008a20.987,20.987,0,0,1-1.34,7.575,18,18,0,0,1-3.788,6.06,17.5,17.5,0,0,1-5.856,4.021,19.011,19.011,0,0,1-7.546,1.457,15.274,15.274,0,0,1-11.654-5.07,16.1,16.1,0,0,1-3.2-5.448,19.792,19.792,0,0,1-1.107-6.672,18.691,18.691,0,0,1,.845-5.652,19.887,19.887,0,0,1,2.36-4.982,23.309,23.309,0,0,1,3.613-4.254,32.276,32.276,0,0,1,4.545-3.525l.7.524a22.836,22.836,0,0,0-3.846,6.293,19.144,19.144,0,0,0-1.4,7.284,20.143,20.143,0,0,0,.845,5.681,18.509,18.509,0,0,0,2.477,5.273,13.482,13.482,0,0,0,4.079,3.9,10.408,10.408,0,0,0,5.594,1.515,8.711,8.711,0,0,0,3.729-.816,9.882,9.882,0,0,0,3.059-2.214,11.286,11.286,0,0,0,2.1-3.176,9.046,9.046,0,0,0,.787-3.7,12.177,12.177,0,0,0-.554-3.642,13.786,13.786,0,0,0-6.963-8.187,9.869,9.869,0,0,0-1.777-.7q-.845-.233-1.836-.524a5.6,5.6,0,0,1-.874-.2,5.858,5.858,0,0,1-.874-.35,2.155,2.155,0,0,1-.7-.554,1.319,1.319,0,0,1-.291-.874,2.872,2.872,0,0,1,.758-1.923,8.24,8.24,0,0,1,1.806-1.544,9.623,9.623,0,0,1,2.214-1.049,6.731,6.731,0,0,1,2.039-.379,9.234,9.234,0,0,1,5.244,1.515,13.238,13.238,0,0,1,3.788,3.846,17.953,17.953,0,0,1,2.273,5.128A20.5,20.5,0,0,1,214.644,46.931ZM247.1,33.587a1.61,1.61,0,0,1-.466,1.136,1.47,1.47,0,0,1-1.107.5,2.305,2.305,0,0,1-1.107-.32q-.583-.32-1.311-.728a9.812,9.812,0,0,0-1.69-.728,6.9,6.9,0,0,0-2.185-.32,7.99,7.99,0,0,0-5.1,1.777,15.716,15.716,0,0,0-3.788,4.4,22.94,22.94,0,0,0-2.36,5.594,20.459,20.459,0,0,0-.816,5.361,18.37,18.37,0,0,0,.291,3.292,9.425,9.425,0,0,0,1.02,2.914,5.631,5.631,0,0,0,2.01,2.1,6.151,6.151,0,0,0,3.263.787,10.519,10.519,0,0,0,4.021-.787,15.951,15.951,0,0,0,3.613-2.069A17.33,17.33,0,0,1,242,52.554a29.059,29.059,0,0,1,1.428-4.079,28.485,28.485,0,0,1,2.01-3.817,25.376,25.376,0,0,1,2.36-3.2l.758.466A23.91,23.91,0,0,0,247.625,46a30.048,30.048,0,0,0-.291,4.137,21.487,21.487,0,0,0,.35,3.962,9.048,9.048,0,0,0,1.224,3.234,6.113,6.113,0,0,0,2.389,2.156,8.457,8.457,0,0,0,3.9.787,10.978,10.978,0,0,0,5.361-1.34,16.609,16.609,0,0,0,4.312-3.38l.466.233a18.259,18.259,0,0,1-2.739,3.9,23.772,23.772,0,0,1-3.758,3.351,18.876,18.876,0,0,1-4.4,2.36,13.047,13.047,0,0,1-4.6.874,7.541,7.541,0,0,1-5.244-1.836,9.38,9.38,0,0,1-2.8-4.633,24.336,24.336,0,0,1-5.448,4.108,12.87,12.87,0,0,1-6.322,1.661,9.969,9.969,0,0,1-4.341-.9,9.4,9.4,0,0,1-3.176-2.418,10.476,10.476,0,0,1-1.952-3.584,14,14,0,0,1-.67-4.341,18.415,18.415,0,0,1,.845-5.39,28.226,28.226,0,0,1,2.331-5.448,30.784,30.784,0,0,1,3.525-5.07,27.48,27.48,0,0,1,4.458-4.2,21.735,21.735,0,0,1,5.1-2.855,14.912,14.912,0,0,1,5.477-1.049,10.479,10.479,0,0,1,1.573.146,8.3,8.3,0,0,1,1.806.5,4.159,4.159,0,0,1,1.486.991A2.267,2.267,0,0,1,247.1,33.587Zm53.9,22.2a24.065,24.065,0,0,1-3,4.021,21.569,21.569,0,0,1-3.788,3.263,17.933,17.933,0,0,1-4.458,2.185,15.734,15.734,0,0,1-4.953.787,16.29,16.29,0,0,1-6.672-1.282,15.618,15.618,0,0,1-4.982-3.467,19.446,19.446,0,0,1-3.5-5.1,33.012,33.012,0,0,1-2.214-6.089,45.009,45.009,0,0,1-1.165-6.5,60.745,60.745,0,0,1-.35-6.352q0-2.8.233-5.74t.7-6.031q-1.806.058-3.525.058H259.92q-1.107,0-2.506-.058a9.5,9.5,0,0,1-2.622-.466,5.12,5.12,0,0,1-2.039-1.224,3.238,3.238,0,0,1-.816-2.389,2.662,2.662,0,0,1,.321-1.4,2.015,2.015,0,0,1,.874-.787,4.131,4.131,0,0,1,1.282-.35,12.464,12.464,0,0,1,1.486-.087q.874,0,4.137.291t7.867.641A112.429,112.429,0,0,1,271.661,6.2a85.162,85.162,0,0,1,5.215-12.12h.816Q275.828.431,274.4,6.9a118.187,118.187,0,0,0-2.127,13.111q4.254.291,8.77.5t8.828.2q6.352,0,10.314-.117t6.235-.291q2.68-.233,4.021-.466l.233.991q-3.5.816-7.983,1.544t-9.556,1.282q-5.07.554-10.489.961t-10.78.641q-.117,1.165-.117,2.36v2.36q0,2.8.262,6.177a54.894,54.894,0,0,0,.961,6.789,45.576,45.576,0,0,0,1.894,6.643,20.775,20.775,0,0,0,3.147,5.711,15.427,15.427,0,0,0,4.691,3.992,13.157,13.157,0,0,0,6.468,1.515,12.71,12.71,0,0,0,6.206-1.515,28.961,28.961,0,0,0,5.273-3.729Z" transform="translate(892.725 96.96)" fill="#4a5568" stroke="rgba(76,85,102,0.2)" stroke-width="0.4"/>
    <g id="boat" transform="translate(792.046 77.301)">
      <path id="Path_1" data-name="Path 1" d="M172,0l5.193,16.879a70.723,70.723,0,0,1-2.2,47.727l-1.411,3.429,3.525-.755a85.6,85.6,0,0,1,37.181.291l2.013.464A70.724,70.724,0,0,0,174.547,1.142Z" transform="translate(-141.938)" fill="#a6eae1"/>
      <path id="Path_2" data-name="Path 2" d="M56.568,24l1.753,3.066a60.4,60.4,0,0,1-.171,60.221,28.112,28.112,0,0,0-22.151,0l2.076-4.153A182.2,182.2,0,0,0,53.483,38.809Z" transform="translate(-32.836 -19.253)" fill="#fbb6ce"/>
      <path id="Path_3" data-name="Path 3" d="M20,364.746H44.7a74.91,74.91,0,0,0,16.838-1.918l3.955-.911A74.921,74.921,0,0,1,82.322,360h18.369L92.88,372.274a11.075,11.075,0,0,1-9.344,5.129H32.3a7.911,7.911,0,0,1-6.708-3.718Z" transform="translate(-20 -288.802)" fill="#feebc8"/>
    </g>
  </g>
</svg>
