<svg xmlns="http://www.w3.org/2000/svg" width="80" height="80" viewBox="0 0 80 80">
  <g id="Group_1" data-name="Group 1" transform="translate(-244 -148.13)">
    <rect id="Rectangle_1" data-name="Rectangle 1" width="80" height="80" transform="translate(244 148.13)" fill="#f8f8f8"/>
    <g id="Icon_feather-calendar" data-name="Icon feather-calendar" transform="translate(267.59 169.59)">
      <path id="Path_1" data-name="Path 1" d="M8.147,6H33.674a3.681,3.681,0,0,1,3.647,3.715v26a3.681,3.681,0,0,1-3.647,3.715H8.147A3.681,3.681,0,0,1,4.5,35.72v-26A3.681,3.681,0,0,1,8.147,6Z" transform="translate(-4.5 -2.353)" fill="none" stroke="#73eac0" stroke-linecap="round" stroke-linejoin="round" stroke-width="4"/>
      <path id="Path_2" data-name="Path 2" d="M24,3v7.293" transform="translate(-0.296 -3)" fill="none" stroke="#73eac0" stroke-linecap="round" stroke-linejoin="round" stroke-width="4"/>
      <path id="Path_3" data-name="Path 3" d="M12,3v7.293" transform="translate(-2.883 -3)" fill="none" stroke="#73eac0" stroke-linecap="round" stroke-linejoin="round" stroke-width="4"/>
      <path id="Path_4" data-name="Path 4" d="M4.5,15H37.321" transform="translate(-4.5 -0.168)" fill="none" stroke="#73eac0" stroke-linecap="round" stroke-linejoin="round" stroke-width="4"/>
    </g>
  </g>
</svg>
