<?xml version="1.0" encoding="iso-8859-1"?>
<!-- Generator: Adobe Illustrator 19.0.0, SVG Export Plug-In . SVG Version: 6.00 Build 0)  -->
<!-- License: CC0. Made by SVG Repo: https://www.svgrepo.com/svg/133762/helm -->
<svg version="1.1" id="Layer_1" xmlns="http://www.w3.org/2000/svg" xmlns:xlink="http://www.w3.org/1999/xlink" x="0px" y="0px"
	 viewBox="0 0 512 512" style="enable-background:new 0 0 512 512;" xml:space="preserve">
<path style="fill:#F15A24;" d="M459.836,345.188L305.358,256l154.478-89.188c11.804-6.815,15.848-21.909,9.032-33.712
	c-6.815-11.804-21.908-15.847-33.711-9.033l-154.478,89.189V34.878c0-13.63-11.05-24.679-24.679-24.679
	c-13.629,0-24.679,11.049-24.679,24.679v178.377L76.843,124.066c-11.805-6.815-26.898-2.77-33.711,9.033
	c-6.815,11.804-2.77,26.897,9.032,33.712L206.642,256L52.164,345.188c-11.804,6.815-15.848,21.909-9.032,33.712
	c4.571,7.918,12.865,12.344,21.395,12.344c4.187,0,8.431-1.067,12.317-3.311l154.478-89.189v178.377
	c0,13.63,11.05,24.679,24.679,24.679c13.629,0,24.679-11.049,24.679-24.679V298.745l154.478,89.189
	c3.887,2.244,8.13,3.311,12.317,3.311c8.529,0,16.825-4.426,21.395-12.344C475.684,367.097,471.64,352.003,459.836,345.188z"/>
<g>
	<circle style="fill:#FBB03B;" cx="256" cy="256" r="67.315"/>
	<path style="fill:#FBB03B;" d="M256,63.235C149.539,63.235,63.235,149.539,63.235,256S149.539,448.765,256,448.765
		S448.765,362.461,448.765,256S362.461,63.235,256,63.235z M256,407.968c-83.929,0-151.968-68.039-151.968-151.968
		S172.071,104.032,256,104.032c83.93,0,151.968,68.039,151.968,151.968S339.93,407.968,256,407.968z"/>
</g>
<circle style="fill:#F15A24;" cx="256" cy="256" r="27.538"/>
<path d="M464.936,336.355l-18.33-10.583c7.993-21.766,12.358-45.269,12.358-69.773c0-24.504-4.365-48.007-12.358-69.773
	l18.33-10.583c16.654-9.617,22.38-30.99,12.765-47.644c-9.614-16.653-30.984-22.382-47.644-12.767l-18.427,10.639
	c-30.165-36.017-72.567-61.447-120.752-69.828V34.878C290.878,15.647,275.232,0,256,0s-34.878,15.647-34.878,34.878v21.166
	c-48.185,8.381-90.587,33.81-120.752,69.828l-18.428-10.64c-8.067-4.657-17.465-5.893-26.466-3.484
	c-8.999,2.412-16.52,8.183-21.177,16.25c-9.616,16.654-3.889,38.028,12.765,47.645l18.33,10.583
	c-7.993,21.767-12.358,45.27-12.358,69.774c0,24.504,4.365,48.007,12.358,69.773l-18.33,10.583
	c-16.654,9.617-22.38,30.99-12.765,47.644c6.211,10.76,17.794,17.444,30.227,17.444c6.094,0,12.117-1.617,17.416-4.676
	l18.427-10.639c30.165,36.017,72.567,61.447,120.752,69.828v21.167C221.122,496.353,236.768,512,256,512
	s34.878-15.647,34.878-34.878v-21.166c48.185-8.381,90.587-33.81,120.752-69.828l18.428,10.64c5.298,3.06,11.322,4.676,17.415,4.676
	c12.434,0,24.017-6.685,30.227-17.444C487.317,367.346,481.591,345.972,464.936,336.355z M440.256,132.9
	c6.914-3.992,15.788-1.615,19.78,5.299c3.992,6.914,1.615,15.787-5.298,19.78l-16.194,9.35c-4.252-8.718-9.108-17.091-14.518-25.058
	L440.256,132.9z M241.52,34.878c0-7.984,6.496-14.48,14.48-14.48c7.984,0,14.48,6.496,14.48,14.48v18.68
	c-4.784-0.339-9.611-0.522-14.48-0.522c-4.869,0-9.695,0.184-14.48,0.522V34.878z M57.264,157.98
	c-6.914-3.992-9.291-12.865-5.298-19.781c1.933-3.348,5.054-5.744,8.79-6.745c3.736-1.003,7.638-0.489,10.988,1.445l16.232,9.371
	c-5.41,7.968-10.265,16.34-14.518,25.058L57.264,157.98z M71.744,379.1c-2.204,1.272-4.699,1.944-7.218,1.944
	c-5.168,0-9.982-2.775-12.561-7.245c-3.992-6.914-1.615-15.787,5.298-19.78l16.194-9.35c4.252,8.718,9.108,17.091,14.518,25.058
	L71.744,379.1z M270.48,477.122c0,7.984-6.496,14.48-14.48,14.48c-7.984,0-14.48-6.496-14.48-14.48v-18.68
	c4.784,0.339,9.611,0.522,14.48,0.522c4.869,0,9.695-0.184,14.48-0.522V477.122z M256,438.566
	c-100.667,0-182.566-81.899-182.566-182.566S155.333,73.434,256,73.434S438.566,155.333,438.566,256S356.667,438.566,256,438.566z
	 M460.035,373.802c-2.578,4.467-7.391,7.243-12.56,7.243c-2.519,0-5.014-0.672-7.217-1.944l-16.232-9.371
	c5.41-7.968,10.264-16.34,14.518-25.058l16.193,9.35C461.651,358.013,464.028,366.887,460.035,373.802z"/>
<path d="M256,93.833C166.58,93.833,93.833,166.581,93.833,256S166.58,418.167,256,418.167S418.167,345.419,418.167,256
	S345.419,93.833,256,93.833z M370.841,339.024l-56.183-32.438c6.303-7.299,11.269-15.775,14.517-25.058l56.191,32.442
	C381.375,322.842,376.492,331.228,370.841,339.024z M126.634,313.969l56.191-32.442c3.248,9.283,8.213,17.76,14.517,25.058
	l-56.183,32.438C135.508,331.228,130.625,322.842,126.634,313.969z M114.231,256c0-13.342,1.855-26.258,5.317-38.507l59.071,34.104
	c-0.082,1.458-0.133,2.924-0.133,4.402c0,1.478,0.051,2.945,0.133,4.402l-59.071,34.104
	C116.086,282.258,114.231,269.342,114.231,256z M141.159,172.976l56.183,32.438c-6.303,7.299-11.269,15.775-14.517,25.058
	l-56.191-32.442C130.625,189.159,135.508,180.772,141.159,172.976z M198.884,256c0-31.493,25.621-57.116,57.116-57.116
	s57.116,25.622,57.116,57.116S287.494,313.116,256,313.116S198.884,287.493,198.884,256z M385.366,198.031l-56.191,32.442
	c-3.248-9.283-8.213-17.76-14.517-25.058l56.183-32.438C376.492,180.772,381.375,189.159,385.366,198.031z M333.381,260.402
	c0.082-1.458,0.133-2.924,0.133-4.402c0-1.478-0.051-2.944-0.133-4.402l59.071-34.104c3.462,12.248,5.317,25.164,5.317,38.506
	c0,13.342-1.855,26.258-5.317,38.507L333.381,260.402z M357.494,157.128l-59.023,34.078c-2.439-1.604-4.974-3.07-7.593-4.396
	v-68.233C316.595,125.108,339.526,138.688,357.494,157.128z M270.48,114.965v64.898c-4.695-0.891-9.53-1.377-14.48-1.377
	c-4.95,0-9.786,0.485-14.48,1.377v-64.898c4.762-0.485,9.592-0.734,14.48-0.734C260.887,114.231,265.719,114.48,270.48,114.965z
	 M221.122,118.577v68.233c-2.619,1.326-5.155,2.792-7.593,4.396l-59.023-34.078C172.474,138.688,195.404,125.108,221.122,118.577z
	 M154.506,354.872l59.023-34.078c2.439,1.604,4.974,3.07,7.593,4.396v68.233C195.404,386.893,172.474,373.312,154.506,354.872z
	 M241.52,397.035v-64.898c4.695,0.891,9.53,1.377,14.48,1.377s9.786-0.485,14.48-1.377v64.898c-4.762,0.485-9.592,0.734-14.48,0.734
	C251.112,397.769,246.281,397.52,241.52,397.035z M290.878,393.423V325.19c2.619-1.326,5.155-2.792,7.593-4.396l59.023,34.078
	C339.526,373.312,316.595,386.893,290.878,393.423z"/>
<path d="M293.737,256c0-20.808-16.929-37.737-37.737-37.737S218.263,235.192,218.263,256c0,20.808,16.929,37.737,37.737,37.737
	S293.737,276.808,293.737,256z M238.661,256c0-9.561,7.778-17.339,17.339-17.339c9.561,0,17.339,7.778,17.339,17.339
	c0,9.561-7.778,17.339-17.339,17.339C246.439,273.339,238.661,265.561,238.661,256z"/>
</svg>
