<svg id="logo" xmlns="http://www.w3.org/2000/svg" width="57.121" height="62.721" viewBox="0 0 57.121 62.721">
  <path id="Path_1" data-name="Path 1" d="M172,0l3.676,11.948a50.064,50.064,0,0,1-1.557,33.785l-1,2.427,2.5-.534a60.593,60.593,0,0,1,26.32.206l1.425.328A50.065,50.065,0,0,0,173.8.809Z" transform="translate(-150.72)" fill="#a6eae1"/>
  <path id="Path_2" data-name="Path 2" d="M50.56,24,51.8,26.171A42.753,42.753,0,0,1,51.68,68.8,19.9,19.9,0,0,0,36,68.8l1.469-2.94A128.981,128.981,0,0,0,48.376,34.483Z" transform="translate(-33.76 -20.64)" fill="#fbb6ce"/>
  <path id="Path_3" data-name="Path 3" d="M20,363.36H37.483A53.027,53.027,0,0,0,49.4,362l2.8-.645A53.037,53.037,0,0,1,64.117,360h13l-5.53,8.689a7.84,7.84,0,0,1-6.615,3.631H28.7a5.6,5.6,0,0,1-4.749-2.632Z" transform="translate(-20 -309.599)" fill="#feebc8"/>
</svg>
