<svg xmlns="http://www.w3.org/2000/svg" xmlns:xlink="http://www.w3.org/1999/xlink" width="1920" height="1080" viewBox="0 0 1920 1080">
  <defs>
    <clipPath id="clip-Web_1_-Landing_Page_1">
      <rect width="1920" height="1080"/>
    </clipPath>
  </defs>
  <g id="Web_1_-Landing_Page_1" data-name="Web 1 -Landing Page – 1" clip-path="url(#clip-Web_1_-Landing_Page_1)">
    <rect width="1920" height="1080" fill="#fff"/>
    <circle id="Ellipse_3" data-name="Ellipse 3" cx="240.5" cy="240.5" r="240.5" transform="translate(991 77)" fill="#feebc8"/>
    <g id="Group_16" data-name="Group 16" transform="translate(170.508 206.517)">
      <g id="Group_16-2" data-name="Group 16" transform="translate(0 97.232)">
        <path id="Path_35" data-name="Path 35" d="M119.566,18.874s-2.734-13.56-20.2-8.407c0,0,15.84-8.453,21.29,5.589,0,0,2.011-1.9,3.633.195A21.354,21.354,0,0,1,145.768,15s-16.368-2.354-21.651,5C124.117,20,121.837,22.535,119.566,18.874Z" transform="translate(62.264 38.975)" fill="#4a5568"/>
        <path id="Path_36" data-name="Path 36" d="M142.032,22.165s-4.81-23.941-35.61-14.83c0,0,27.935-14.913,37.547,9.843,0,0,3.522-3.327,6.423.361a37.623,37.623,0,0,1,37.871-2.206s-28.881-4.162-38.2,8.805C150.067,24.139,146.063,28.625,142.032,22.165Z" transform="translate(120.573 -2.883)" fill="#4a5568"/>
        <path id="Path_37" data-name="Path 37" d="M105.927,15.459s-5.8-14.227-24-3.744c0,0,15.7-13.643,24.645.334,0,0,1.8-2.642,4.023-.769,0,0,8.972-10.446,23.422-7.285,0,0-18.537,1.9-22.838,11.465C111.182,15.459,109.2,18.879,105.927,15.459Z" transform="translate(-81.931 1.377)" fill="#4a5568"/>
      </g>
      <g id="Group_17" data-name="Group 17" transform="translate(252.576 320.094)">
        <path id="Path_38" data-name="Path 38" d="M145.514,42.363s-2.632-13.1-19.492-8.11c0,0,15.284-8.156,20.548,5.376a2.3,2.3,0,0,1,3.513.213A20.556,20.556,0,0,1,170.8,38.618s-15.812-2.289-20.9,4.829C149.9,43.447,147.7,45.9,145.514,42.363Z" transform="translate(30.06 13.493)" fill="#4a5568"/>
        <path id="Path_39" data-name="Path 39" d="M167.216,45.543s-4.643-23.106-34.386-14.32c0,0,26.953-14.394,36.258,9.519,0,0,3.411-3.225,6.2.352a36.248,36.248,0,0,1,36.546-2.15s-27.88-3.995-36.861,8.527C174.974,47.47,171.09,51.8,167.216,45.543Z" transform="translate(86.352 -26.928)" fill="#4a5568"/>
        <path id="Path_40" data-name="Path 40" d="M132.362,39.058s-5.607-13.727-23.18-3.615c0,0,15.182-13.171,23.783.324,0,0,1.752-2.549,3.921-.741,0,0,8.638-10.093,22.587-7.016,0,0-17.888,1.817-22.041,11.048C137.432,39.058,135.514,42.367,132.362,39.058Z" transform="translate(-109.182 -22.806)" fill="#4a5568"/>
      </g>
      <g id="Group_18" data-name="Group 18" transform="translate(322.563 29.8)">
        <path id="Path_41" data-name="Path 41" d="M154.343,11.58s-2.716-13.551-20.168-8.388c0,0,15.8-8.444,21.253,5.57,0,0,2-1.891,3.652.222a21.265,21.265,0,0,1,21.457-1.27s-16.368-2.354-21.651,5C158.885,12.71,156.623,15.259,154.343,11.58Z" transform="translate(27.486 46.255)" fill="#4a5568"/>
        <path id="Path_42" data-name="Path 42" d="M176.852,14.894S172.014-9.047,141.224.055c0,0,27.926-14.9,37.538,9.852,0,0,3.541-3.327,6.432.371a37.574,37.574,0,0,1,37.862-2.224s-28.89-4.162-38.186,8.824C184.869,16.877,180.856,21.354,176.852,14.894Z" transform="translate(85.771 4.393)" fill="#4a5568"/>
        <path id="Path_43" data-name="Path 43" d="M140.738,8.168s-5.8-14.209-24.005-3.735c0,0,15.71-13.653,24.626.334,0,0,1.826-2.632,4.05-.788,0,0,8.972-10.446,23.412-7.248,0,0-18.556,1.872-22.838,11.437C145.984,8.168,144.01,11.6,140.738,8.168Z" transform="translate(-116.733 8.653)" fill="#4a5568"/>
      </g>
      <g id="Group_19" data-name="Group 19" transform="translate(726.225)">
        <path id="Path_44" data-name="Path 44" d="M197.913,8.383S195.188-5.186,177.726-.024c0,0,15.812-8.453,21.262,5.589,0,0,2.011-1.9,3.652.2A21.3,21.3,0,0,1,224.087,4.5s-16.35-2.354-21.623,5C202.464,9.5,200.184,12.053,197.913,8.383Z" transform="translate(-16.074 49.462)" fill="#4a5568"/>
        <path id="Path_45" data-name="Path 45" d="M220.4,11.671s-4.82-23.931-35.628-14.82c0,0,27.926-14.922,37.547,9.834,0,0,3.54-3.318,6.414.371a37.654,37.654,0,0,1,37.89-2.224S237.746.687,228.412,13.654C228.412,13.654,224.427,18.14,220.4,11.671Z" transform="translate(42.219 7.608)" fill="#4a5568"/>
        <path id="Path_46" data-name="Path 46" d="M184.29,4.965s-5.8-14.218-24.005-3.735c0,0,15.691-13.643,24.626.306,0,0,1.826-2.623,4.06-.76,0,0,8.963-10.446,23.4-7.267,0,0-18.546,1.882-22.838,11.456C189.536,4.965,187.553,8.385,184.29,4.965Z" transform="translate(-160.285 11.867)" fill="#4a5568"/>
      </g>
      <g id="Group_20" data-name="Group 20" transform="translate(623.919 352.062)">
        <path id="Path_47" data-name="Path 47" d="M186.874,46.354S184.14,32.8,166.687,37.966c0,0,15.812-8.453,21.262,5.561,0,0,2.011-1.872,3.642.232A21.27,21.27,0,0,1,213.039,42.5s-16.359-2.354-21.624,5C191.415,47.494,189.154,50.025,186.874,46.354Z" transform="translate(-5.044 11.484)" fill="#4a5568"/>
        <path id="Path_48" data-name="Path 48" d="M209.357,49.677s-4.829-23.941-35.619-14.857c0,0,27.926-14.895,37.537,9.862,0,0,3.531-3.337,6.414.371a37.576,37.576,0,0,1,37.871-2.224s-28.881-4.162-38.2,8.814C217.365,51.642,213.37,56.127,209.357,49.677Z" transform="translate(53.257 -30.377)" fill="#4a5568"/>
        <path id="Path_49" data-name="Path 49" d="M173.243,42.945s-5.8-14.227-24-3.726c0,0,15.692-13.671,24.608.306,0,0,1.817-2.623,4.069-.779,0,0,8.963-10.436,23.4-7.248,0,0-18.546,1.882-22.828,11.447C178.5,42.945,176.506,46.356,173.243,42.945Z" transform="translate(-149.247 -26.11)" fill="#4a5568"/>
      </g>
      <g id="Group_21" data-name="Group 21" transform="translate(511.103 185)">
        <path id="Path_50" data-name="Path 50" d="M174.71,28.337s-2.734-13.56-20.2-8.407c0,0,15.831-8.434,21.271,5.58,0,0,2-1.872,3.642.213a21.3,21.3,0,0,1,21.447-1.261s-16.359-2.363-21.633,5C179.242,29.459,176.972,32.008,174.71,28.337Z" transform="translate(7.12 29.507)" fill="#4a5568"/>
        <path id="Path_51" data-name="Path 51" d="M197.2,31.631S192.39,7.69,161.563,16.81c0,0,27.935-14.922,37.584,9.834,0,0,3.5-3.318,6.4.371a37.623,37.623,0,0,1,37.871-2.206s-28.881-4.18-38.2,8.805C205.218,33.614,201.223,38.109,197.2,31.631Z" transform="translate(65.404 -12.352)" fill="#4a5568"/>
        <path id="Path_52" data-name="Path 52" d="M161.071,24.914s-5.821-14.218-24-3.735c0,0,15.7-13.653,24.626.306,0,0,1.807-2.623,4.032-.76,0,0,8.972-10.446,23.421-7.248,0,0-18.556,1.872-22.856,11.437C166.3,24.914,164.334,28.334,161.071,24.914Z" transform="translate(-137.075 -8.082)" fill="#4a5568"/>
      </g>
      <g id="Group_22" data-name="Group 22" transform="translate(148.407 209.639)">
        <path id="Path_53" data-name="Path 53" d="M135.553,31s-2.734-13.56-20.168-8.4c0,0,15.8-8.453,21.281,5.57,0,0,1.974-1.882,3.624.2a21.326,21.326,0,0,1,21.457-1.251s-16.368-2.363-21.642,5.005C140.1,32.127,137.824,34.657,135.553,31Z" transform="translate(46.276 26.854)" fill="#4a5568"/>
        <path id="Path_54" data-name="Path 54" d="M158.062,34.295s-4.82-23.95-35.628-14.83c0,0,27.926-14.913,37.547,9.834,0,0,3.531-3.318,6.423.38a37.585,37.585,0,0,1,37.862-2.215s-28.89-4.171-38.186,8.824C166.079,36.287,162.085,40.773,158.062,34.295Z" transform="translate(104.561 -15.01)" fill="#4a5568"/>
        <path id="Path_55" data-name="Path 55" d="M121.948,27.575s-5.821-14.209-24.005-3.735c0,0,15.7-13.643,24.626.324,0,0,1.826-2.642,4.05-.769,0,0,8.972-10.427,23.412-7.276,0,0-18.546,1.9-22.838,11.456C127.194,27.575,125.2,31,121.948,27.575Z" transform="translate(-97.943 -10.747)" fill="#4a5568"/>
      </g>
    </g>
    <circle id="Ellipse_1" data-name="Ellipse 1" cx="245" cy="245" r="245" transform="translate(-245 835)" fill="#a6eae1"/>
    <circle id="Ellipse_2" data-name="Ellipse 2" cx="124" cy="124" r="124" transform="translate(1796 942)" fill="#fbb6ce"/>
  </g>
</svg>
