<svg xmlns="http://www.w3.org/2000/svg" xmlns:xlink="http://www.w3.org/1999/xlink" width="960" height="1075" viewBox="0 0 960 1075">
  <defs>
    <clipPath id="clip-background1">
      <rect width="960" height="1075"/>
    </clipPath>
  </defs>
  <g id="background1" clip-path="url(#clip-background1)">
    <rect width="960" height="1075" fill="#fff"/>
    <g id="background1-2" data-name="background1" transform="translate(-1145 9)">
      <circle id="Ellipse_2" data-name="Ellipse 2" cx="124" cy="124" r="124" transform="translate(1939 919)" fill="#fbb6ce"/>
      <circle id="Ellipse_3" data-name="Ellipse 3" cx="151" cy="151" r="151" transform="translate(1662 117)" fill="#feebc8"/>
      <circle id="Ellipse_1" data-name="Ellipse 1" cx="220" cy="220" r="220" transform="translate(925 846)" fill="#a6eae1"/>
    </g>
    <g id="Group_18" data-name="Group 18" transform="translate(231.956 194.336)">
      <path id="Path_41" data-name="Path 41" d="M154.343,11.58s-2.716-13.551-20.168-8.388c0,0,15.8-8.444,21.253,5.57,0,0,2-1.891,3.652.222a21.265,21.265,0,0,1,21.457-1.27s-16.368-2.354-21.651,5C158.885,12.71,156.623,15.259,154.343,11.58Z" transform="translate(27.486 46.255)" fill="#4a5568"/>
      <path id="Path_42" data-name="Path 42" d="M176.852,14.894S172.014-9.047,141.224.055c0,0,27.926-14.9,37.538,9.852,0,0,3.541-3.327,6.432.371a37.574,37.574,0,0,1,37.862-2.224s-28.89-4.162-38.186,8.824C184.869,16.877,180.856,21.354,176.852,14.894Z" transform="translate(85.771 4.393)" fill="#4a5568"/>
      <path id="Path_43" data-name="Path 43" d="M140.738,8.168s-5.8-14.209-24.005-3.735c0,0,15.71-13.653,24.626.334,0,0,1.826-2.632,4.05-.788,0,0,8.972-10.446,23.412-7.248,0,0-18.556,1.872-22.838,11.437C145.984,8.168,144.01,11.6,140.738,8.168Z" transform="translate(-116.733 8.653)" fill="#4a5568"/>
    </g>
    <g id="Group_19" data-name="Group 19" transform="translate(356.155 213.536)">
      <path id="Path_44" data-name="Path 44" d="M197.913,8.383S195.188-5.186,177.726-.024c0,0,15.812-8.453,21.262,5.589,0,0,2.011-1.9,3.652.2A21.3,21.3,0,0,1,224.087,4.5s-16.35-2.354-21.623,5C202.464,9.5,200.184,12.053,197.913,8.383Z" transform="translate(-16.074 49.462)" fill="#4a5568"/>
      <path id="Path_45" data-name="Path 45" d="M220.4,11.671s-4.82-23.931-35.628-14.82c0,0,27.926-14.922,37.547,9.834,0,0,3.54-3.318,6.414.371a37.654,37.654,0,0,1,37.89-2.224S237.746.687,228.412,13.654C228.412,13.654,224.427,18.14,220.4,11.671Z" transform="translate(42.219 7.608)" fill="#4a5568"/>
      <path id="Path_46" data-name="Path 46" d="M184.29,4.965s-5.8-14.218-24.005-3.735c0,0,15.691-13.643,24.626.306,0,0,1.826-2.623,4.06-.76,0,0,8.963-10.446,23.4-7.267,0,0-18.546,1.882-22.838,11.456C189.536,4.965,187.553,8.385,184.29,4.965Z" transform="translate(-160.285 11.867)" fill="#4a5568"/>
    </g>
    <g id="Group_17" data-name="Group 17" transform="translate(590.594 149.287)">
      <path id="Path_38" data-name="Path 38" d="M145.514,42.363s-2.632-13.1-19.492-8.11c0,0,15.284-8.156,20.548,5.376a2.3,2.3,0,0,1,3.513.213A20.556,20.556,0,0,1,170.8,38.618s-15.812-2.289-20.9,4.829C149.9,43.447,147.7,45.9,145.514,42.363Z" transform="translate(0.721 13.493)" fill="#4a5568"/>
      <path id="Path_39" data-name="Path 39" d="M167.216,45.543s-4.643-23.106-34.386-14.32c0,0,26.953-14.394,36.258,9.519,0,0,3.411-3.225,6.2.352a36.248,36.248,0,0,1,36.546-2.15s-27.88-3.995-36.861,8.527C174.974,47.47,171.09,51.8,167.216,45.543Z" transform="translate(38.718 -26.928)" fill="#4a5568"/>
      <path id="Path_40" data-name="Path 40" d="M132.362,39.058s-5.607-13.727-23.18-3.615c0,0,15.182-13.171,23.783.324,0,0,1.752-2.549,3.921-.741,0,0,8.638-10.093,22.587-7.016,0,0-17.888,1.817-22.041,11.048C137.432,39.058,135.514,42.367,132.362,39.058Z" transform="translate(-109.182 -22.806)" fill="#4a5568"/>
    </g>
  </g>
</svg>
