<svg xmlns="http://www.w3.org/2000/svg" width="204.072" height="55.003" viewBox="0 0 204.072 55.003">
  <path id="Path_32" data-name="Path 32" d="M22.866,27.981a9.711,9.711,0,0,1-.726,3.745,9.287,9.287,0,0,1-2.025,3.057,9.866,9.866,0,0,1-3.038,2.063,9.249,9.249,0,0,1-3.764.764,8.689,8.689,0,0,1-5.025-1.624A8.329,8.329,0,0,1,6.4,34.1,7.181,7.181,0,0,1,5.251,31.65l.879-.229a8.974,8.974,0,0,0,2.312,2.025,5.653,5.653,0,0,0,3,.8,5.7,5.7,0,0,0,2.617-.611,6.727,6.727,0,0,0,2.063-1.6,7.288,7.288,0,0,0,1.337-2.312,7.852,7.852,0,0,0,.478-2.694,7.073,7.073,0,0,0-.459-2.732,5.667,5.667,0,0,0-1.2-1.834,8.71,8.71,0,0,0-1.662-1.3q-.917-.554-1.853-1.127a14.588,14.588,0,0,1-1.8-1.3,6.279,6.279,0,0,1-1.471-1.872A17.983,17.983,0,0,1,8.728,21.6a25.333,25.333,0,0,1-1.968,4.814,28.8,28.8,0,0,1-2.847,4.356,19.509,19.509,0,0,1-3.4,3.4l-.306-.535a12.394,12.394,0,0,0,2.14-3.248,25.42,25.42,0,0,0,1.509-4.108,32.307,32.307,0,0,0,.879-4.337,30.676,30.676,0,0,0,.287-3.974A9.156,9.156,0,0,0,4.831,16.1a8.792,8.792,0,0,1-.191-1.8,2.108,2.108,0,0,1,.63-1.643,2.321,2.321,0,0,1,1.624-.573,1.99,1.99,0,0,1,1.223.344,3.812,3.812,0,0,1,.841.9,13.7,13.7,0,0,1,.764,1.261,9.979,9.979,0,0,0,.974,1.452,9,9,0,0,0,1.49,1.452A8.71,8.71,0,0,0,14.5,18.734a28.135,28.135,0,0,1,3.152,1.395,12.322,12.322,0,0,1,2.675,1.853,7.75,7.75,0,0,1,2.541,6ZM44.34,16.174a1.056,1.056,0,0,1-.306.745.964.964,0,0,1-.726.325,1.512,1.512,0,0,1-.726-.21q-.382-.21-.86-.478a6.434,6.434,0,0,0-1.108-.478,4.522,4.522,0,0,0-1.433-.21,5.24,5.24,0,0,0-3.343,1.165,10.306,10.306,0,0,0-2.484,2.885,15.042,15.042,0,0,0-1.548,3.668,13.415,13.415,0,0,0-.535,3.515,12.045,12.045,0,0,0,.191,2.159,6.18,6.18,0,0,0,.669,1.911,3.692,3.692,0,0,0,1.318,1.376,4.033,4.033,0,0,0,2.14.516,6.9,6.9,0,0,0,2.637-.516A10.459,10.459,0,0,0,40.6,31.191a11.365,11.365,0,0,1,.4-2.579,19.058,19.058,0,0,1,.936-2.675,18.68,18.68,0,0,1,1.318-2.5,16.639,16.639,0,0,1,1.548-2.1l.5.306a15.679,15.679,0,0,0-.611,2.675,19.7,19.7,0,0,0-.191,2.713,14.089,14.089,0,0,0,.229,2.6,5.933,5.933,0,0,0,.8,2.121,4.009,4.009,0,0,0,1.567,1.414,5.546,5.546,0,0,0,2.56.516,7.2,7.2,0,0,0,3.515-.879,10.891,10.891,0,0,0,2.828-2.216l.306.153a11.973,11.973,0,0,1-1.8,2.56,15.587,15.587,0,0,1-2.465,2.2,12.377,12.377,0,0,1-2.885,1.548,8.555,8.555,0,0,1-3.019.573,4.945,4.945,0,0,1-3.439-1.2,6.151,6.151,0,0,1-1.834-3.038,15.958,15.958,0,0,1-3.573,2.694,8.439,8.439,0,0,1-4.146,1.089A6.537,6.537,0,0,1,30.3,36.56a6.161,6.161,0,0,1-2.082-1.586,6.869,6.869,0,0,1-1.28-2.35,9.179,9.179,0,0,1-.439-2.847,12.076,12.076,0,0,1,.554-3.534,18.508,18.508,0,0,1,1.528-3.573,20.186,20.186,0,0,1,2.312-3.324,18.019,18.019,0,0,1,2.923-2.751,14.252,14.252,0,0,1,3.343-1.872,9.779,9.779,0,0,1,3.592-.688,6.872,6.872,0,0,1,1.032.1,5.441,5.441,0,0,1,1.185.325,2.727,2.727,0,0,1,.974.65A1.487,1.487,0,0,1,44.34,16.174ZM63.331,5.361a3.7,3.7,0,0,1-.344,1.528,4.931,4.931,0,0,1-.9,1.356,4.8,4.8,0,0,1-1.28.974,3.164,3.164,0,0,1-1.49.382,2.041,2.041,0,0,1-1.586-.65,2.345,2.345,0,0,1-.592-1.643A3.57,3.57,0,0,1,57.485,5.8a4.758,4.758,0,0,1,2.159-2.254,3.181,3.181,0,0,1,1.471-.363,2.17,2.17,0,0,1,1.6.611A2.121,2.121,0,0,1,63.331,5.361Zm10.7,25.372a13.979,13.979,0,0,1-2.082,2.656,14.93,14.93,0,0,1-2.637,2.1,12.76,12.76,0,0,1-3.057,1.395,11.367,11.367,0,0,1-3.343.5,9.416,9.416,0,0,1-3.8-.726,7.838,7.838,0,0,1-2.789-2.006A8.806,8.806,0,0,1,54.6,31.63a11.723,11.723,0,0,1-.592-3.8,13.441,13.441,0,0,1,.65-4.2,15.47,15.47,0,0,1,1.8-3.726,17.8,17.8,0,0,1,2.694-3.191,23.918,23.918,0,0,1,3.305-2.6l.459.344a19.325,19.325,0,0,0-3.038,4.967,14.549,14.549,0,0,0-1.165,5.732,13.425,13.425,0,0,0,.4,3.305,8.424,8.424,0,0,0,1.261,2.808,6.349,6.349,0,0,0,2.2,1.949,6.725,6.725,0,0,0,3.248.726,10.035,10.035,0,0,0,4.3-.955A15.34,15.34,0,0,0,73.8,30.58Zm18.379,1.261a9.83,9.83,0,0,1-3.439,3.993,8.912,8.912,0,0,1-5.044,1.471,6.643,6.643,0,0,1-4.165-1.414,13.391,13.391,0,0,1-3.229-3.706,25.838,25.838,0,0,1-2.369-5.177,51.849,51.849,0,0,1-1.6-5.865,55.327,55.327,0,0,1-.917-5.751,47.761,47.761,0,0,1-.287-4.834q0-2.522.267-5.54A57.108,57.108,0,0,1,72.5-.925,48.5,48.5,0,0,1,74.087-6.9a24.249,24.249,0,0,1,2.369-5.139,12.853,12.853,0,0,1,3.229-3.592,6.883,6.883,0,0,1,4.2-1.356,4.605,4.605,0,0,1,3.286,1.185,8.376,8.376,0,0,1,1.987,2.923A14.172,14.172,0,0,1,90.136-9.2a27.817,27.817,0,0,1,.248,3.477A34.129,34.129,0,0,1,89.41,2.4a38.192,38.192,0,0,1-2.675,7.527,33.875,33.875,0,0,1-3.993,6.419,26.3,26.3,0,0,1-4.929,4.834q.535,2.56,1.28,4.986a21.677,21.677,0,0,0,1.815,4.318,10.947,10.947,0,0,0,2.465,3.057,4.835,4.835,0,0,0,3.191,1.165,6.248,6.248,0,0,0,3.1-.726,8.153,8.153,0,0,0,2.407-2.14ZM76.666,8.418q-.038.841-.019,2.063t.115,2.694q.1,1.471.287,3.152t.5,3.439A24.9,24.9,0,0,0,81.9,14.684a28.988,28.988,0,0,0,2.942-6.018,35.4,35.4,0,0,0,1.662-6.8,51.973,51.973,0,0,0,.516-7.432q0-.5-.019-1.3a17.213,17.213,0,0,0-.134-1.719,18.452,18.452,0,0,0-.325-1.834,7.725,7.725,0,0,0-.573-1.662,3.763,3.763,0,0,0-.917-1.223,1.953,1.953,0,0,0-1.318-.478,3.15,3.15,0,0,0-2.541,1.433A13.378,13.378,0,0,0,79.322-8.7a34.036,34.036,0,0,0-1.3,4.891Q77.507-1.135,77.2,1.33t-.42,4.413Q76.666,7.692,76.666,8.418ZM117.59-11.146a18.706,18.706,0,0,1-.745,5.216A25.685,25.685,0,0,1,114.8-.925,29.454,29.454,0,0,1,111.724,3.7a35.089,35.089,0,0,1-3.84,4.05,38.568,38.568,0,0,1-4.318,3.363,29.52,29.52,0,0,1-4.509,2.5l-.267-.573a20.622,20.622,0,0,0,5.407-3.8,29.959,29.959,0,0,0,4.547-5.54,30.071,30.071,0,0,0,3.133-6.477,20.439,20.439,0,0,0,1.165-6.649,9.72,9.72,0,0,0-.1-1.337,4.041,4.041,0,0,0-.382-1.261,2.553,2.553,0,0,0-.783-.936,2.15,2.15,0,0,0-1.3-.363,6.527,6.527,0,0,0-4.165,1.528,15.373,15.373,0,0,0-3.458,4.069A32.136,32.136,0,0,0,100.128-1.9a59.141,59.141,0,0,0-1.987,6.763,63.85,63.85,0,0,0-1.2,6.878,53.5,53.5,0,0,0-.4,6.228q0,1.49.172,3.305a26.292,26.292,0,0,0,.611,3.649A24.833,24.833,0,0,0,98.465,28.5a11.978,11.978,0,0,0,1.8,3.076,8.743,8.743,0,0,0,2.579,2.159,7.088,7.088,0,0,0,3.477.822,4.4,4.4,0,0,0,2.159-.5,4.07,4.07,0,0,0,1.452-1.337,6.153,6.153,0,0,0,.822-1.911,8.947,8.947,0,0,0,.267-2.178A14.979,14.979,0,0,0,110.54,25a12.086,12.086,0,0,0-1.452-3.477,8.73,8.73,0,0,0-2.465-2.6,6.021,6.021,0,0,0-3.515-1.032,7.311,7.311,0,0,0-1.165.1,7.412,7.412,0,0,0-1.165.287l-.229-.382a15.761,15.761,0,0,1,3.076-1.815,8.452,8.452,0,0,1,3.5-.745,7.1,7.1,0,0,1,3.477.841,8.371,8.371,0,0,1,2.579,2.178,9.689,9.689,0,0,1,1.6,3.076,11.455,11.455,0,0,1,.554,3.5,13.4,13.4,0,0,1-.9,4.929,12.267,12.267,0,0,1-2.5,3.993,11.34,11.34,0,0,1-3.84,2.656,12.366,12.366,0,0,1-4.91.955,9.338,9.338,0,0,1-4.031-.822,10.036,10.036,0,0,1-3.038-2.2,12.614,12.614,0,0,1-2.178-3.191,21.394,21.394,0,0,1-1.414-3.821,27.735,27.735,0,0,1-.764-4.031,34.359,34.359,0,0,1-.229-3.859,50.022,50.022,0,0,1,.592-7.336A59.966,59.966,0,0,1,93.88,4.234a51.266,51.266,0,0,1,2.942-7.718,32.192,32.192,0,0,1,4.127-6.591,19.7,19.7,0,0,1,5.292-4.585,12.639,12.639,0,0,1,6.5-1.719,4.487,4.487,0,0,1,3.668,1.433A5.778,5.778,0,0,1,117.59-11.146Zm23.232,36.071a13.762,13.762,0,0,1-.879,4.967,11.8,11.8,0,0,1-2.484,3.974,11.474,11.474,0,0,1-3.84,2.637,12.466,12.466,0,0,1-4.948.955,10.016,10.016,0,0,1-7.642-3.324,10.559,10.559,0,0,1-2.1-3.573,12.978,12.978,0,0,1-.726-4.375,12.256,12.256,0,0,1,.554-3.706,13.04,13.04,0,0,1,1.548-3.267,15.285,15.285,0,0,1,2.369-2.789,21.165,21.165,0,0,1,2.98-2.312l.459.344a14.975,14.975,0,0,0-2.522,4.127,12.554,12.554,0,0,0-.917,4.776,13.209,13.209,0,0,0,.554,3.726,12.137,12.137,0,0,0,1.624,3.458,8.841,8.841,0,0,0,2.675,2.56,6.825,6.825,0,0,0,3.668.993,5.712,5.712,0,0,0,2.445-.535,6.48,6.48,0,0,0,2.006-1.452,7.4,7.4,0,0,0,1.376-2.082,5.932,5.932,0,0,0,.516-2.426,7.985,7.985,0,0,0-.363-2.388,9.04,9.04,0,0,0-4.566-5.369,6.471,6.471,0,0,0-1.165-.459q-.554-.153-1.2-.344a3.674,3.674,0,0,1-.573-.134,3.841,3.841,0,0,1-.573-.229,1.413,1.413,0,0,1-.459-.363.865.865,0,0,1-.191-.573,1.883,1.883,0,0,1,.5-1.261,5.4,5.4,0,0,1,1.185-1.013,6.31,6.31,0,0,1,1.452-.688,4.414,4.414,0,0,1,1.337-.248,6.055,6.055,0,0,1,3.439.993,8.681,8.681,0,0,1,2.484,2.522,11.772,11.772,0,0,1,1.49,3.363A13.442,13.442,0,0,1,140.822,24.925Zm21.283-8.75a1.056,1.056,0,0,1-.306.745.964.964,0,0,1-.726.325,1.512,1.512,0,0,1-.726-.21q-.382-.21-.86-.478a6.434,6.434,0,0,0-1.108-.478,4.522,4.522,0,0,0-1.433-.21,5.24,5.24,0,0,0-3.343,1.165,10.306,10.306,0,0,0-2.484,2.885,15.043,15.043,0,0,0-1.548,3.668,13.416,13.416,0,0,0-.535,3.515,12.046,12.046,0,0,0,.191,2.159,6.18,6.18,0,0,0,.669,1.911,3.692,3.692,0,0,0,1.318,1.376,4.033,4.033,0,0,0,2.14.516,6.9,6.9,0,0,0,2.637-.516,10.46,10.46,0,0,0,2.369-1.356,11.364,11.364,0,0,1,.4-2.579,19.055,19.055,0,0,1,.936-2.675,18.679,18.679,0,0,1,1.318-2.5,16.639,16.639,0,0,1,1.548-2.1l.5.306a15.678,15.678,0,0,0-.611,2.675,19.7,19.7,0,0,0-.191,2.713,14.09,14.09,0,0,0,.229,2.6,5.933,5.933,0,0,0,.8,2.121,4.009,4.009,0,0,0,1.567,1.414,5.546,5.546,0,0,0,2.56.516,7.2,7.2,0,0,0,3.515-.879,10.891,10.891,0,0,0,2.828-2.216l.306.153a11.972,11.972,0,0,1-1.8,2.56,15.589,15.589,0,0,1-2.465,2.2,12.378,12.378,0,0,1-2.885,1.548,8.555,8.555,0,0,1-3.019.573,4.945,4.945,0,0,1-3.439-1.2,6.151,6.151,0,0,1-1.834-3.038,15.958,15.958,0,0,1-3.573,2.694,8.439,8.439,0,0,1-4.146,1.089,6.537,6.537,0,0,1-2.847-.592,6.162,6.162,0,0,1-2.082-1.586,6.87,6.87,0,0,1-1.28-2.35,9.18,9.18,0,0,1-.439-2.847,12.076,12.076,0,0,1,.554-3.534,18.508,18.508,0,0,1,1.528-3.573,20.186,20.186,0,0,1,2.312-3.324,18.019,18.019,0,0,1,2.923-2.751,14.252,14.252,0,0,1,3.343-1.872,9.779,9.779,0,0,1,3.592-.688,6.871,6.871,0,0,1,1.032.1,5.441,5.441,0,0,1,1.185.325,2.727,2.727,0,0,1,.974.65A1.487,1.487,0,0,1,162.1,16.174Zm35.345,14.558a15.78,15.78,0,0,1-1.968,2.637A14.144,14.144,0,0,1,193,35.509a11.759,11.759,0,0,1-2.923,1.433,10.317,10.317,0,0,1-3.248.516,10.682,10.682,0,0,1-4.375-.841,10.241,10.241,0,0,1-3.267-2.274A12.752,12.752,0,0,1,176.892,31a21.649,21.649,0,0,1-1.452-3.993,29.514,29.514,0,0,1-.764-4.26,39.829,39.829,0,0,1-.229-4.165q0-1.834.153-3.764t.459-3.955q-1.185.038-2.312.038h-2.235q-.726,0-1.643-.038a6.233,6.233,0,0,1-1.719-.306,3.357,3.357,0,0,1-1.337-.8,2.123,2.123,0,0,1-.535-1.567,1.746,1.746,0,0,1,.21-.917,1.321,1.321,0,0,1,.573-.516,2.709,2.709,0,0,1,.841-.229,8.173,8.173,0,0,1,.974-.057q.573,0,2.713.191t5.158.42a73.721,73.721,0,0,1,2.465-8.865,55.843,55.843,0,0,1,3.42-7.948h.535q-1.223,4.165-2.159,8.406a77.5,77.5,0,0,0-1.395,8.6q2.789.191,5.751.325t5.789.134q4.165,0,6.763-.076T201,7.462q1.758-.153,2.637-.306l.153.65q-2.293.535-5.235,1.013t-6.266.841q-3.324.363-6.878.63t-7.069.42q-.076.764-.076,1.548v1.548q0,1.834.172,4.05a35.994,35.994,0,0,0,.63,4.452,29.886,29.886,0,0,0,1.242,4.356,13.623,13.623,0,0,0,2.063,3.745,10.116,10.116,0,0,0,3.076,2.617,8.628,8.628,0,0,0,4.241.993,8.334,8.334,0,0,0,4.069-.993,18.991,18.991,0,0,0,3.458-2.445Z" transform="translate(0.04 17.192)" fill="#4a5568" stroke="rgba(76,85,102,0.51)" stroke-width="0.4"/>
</svg>
